<svg fill="none" xmlns="http://www.w3.org/2000/svg" viewBox="0 0 128 64"><path d="M0 16C0 7.16344 7.16344 0 16 0L112 0C120.837 0 128 7.16344 128 16L128 48C128 56.8366 120.837 64 112 64L16 64C7.16344 64 0 56.8366 0 48L0 16Z" fill="#F0B90B"/><path d="M12.6552 32.0099L10.8276 33.8141L9 32.0099L10.8276 30.2057L12.6552 32.0099ZM17.1137 27.6084L20.2467 30.7212L22.0743 28.917L18.9413 25.8042L17.1137 24L15.2861 25.8042L12.133 28.917L13.9606 30.7212L17.1137 27.6084V27.6084ZM23.3998 30.2057L21.5722 32.0099L23.3998 33.8141L25.2274 32.0099L23.3998 30.2057ZM17.1137 36.3916L13.9807 33.2987L12.133 35.1029L15.266 38.1958L17.0936 40L18.9212 38.1958L22.0743 35.1029L20.2467 33.2987L17.1137 36.3916V36.3916ZM17.1137 33.8141L18.9413 32.0099L17.1137 30.2057L15.2861 32.0099L17.1137 33.8141ZM36.4541 33.9925V33.9727C36.4541 32.803 35.8114 32.2082 34.7871 31.8117C35.4298 31.4548 35.9519 30.8996 35.9519 29.9083V29.8885C35.9519 28.5006 34.8273 27.6084 33.0198 27.6084H28.8826V36.3916H33.1202C35.1286 36.3916 36.4541 35.5985 36.4541 33.9925V33.9925ZM34.0039 30.2454C34.0039 30.8996 33.4616 31.1772 32.598 31.1772H30.7905V29.3135H32.7185C33.5419 29.3135 34.0039 29.6307 34.0039 30.2255V30.2454V30.2454ZM34.5059 33.7547C34.5059 34.4089 33.9837 34.7063 33.1202 34.7063H30.7905V32.7831H33.06C34.0641 32.7831 34.5059 33.14 34.5059 33.7348V33.7547V33.7547ZM40.5511 36.3916V27.6084H38.6029V36.3916H40.5511V36.3916ZM51.0748 36.3916V27.6084H49.1468V33.0211L44.9694 27.6084H43.1619V36.3916H45.0899V30.8203L49.4078 36.4114H51.0748V36.3916ZM61.9198 36.3916L58.1039 27.5489H56.2964L52.4806 36.3916H54.4688L55.2923 34.4287H59.0478L59.8713 36.3916H61.9198V36.3916ZM58.365 32.7237H55.9952L57.1801 29.8686L58.365 32.7237ZM71.2385 36.3916V27.6084H69.3105V33.0211L65.1331 27.6084H63.3256V36.3916H65.2537V30.8203L69.5716 36.4114H71.2385V36.3916ZM81.3605 34.9839L80.1157 33.7348C79.4127 34.3693 78.7896 34.7658 77.7855 34.7658C76.2596 34.7658 75.215 33.5167 75.215 32.0099V31.9901C75.215 30.4833 76.2999 29.254 77.7855 29.254C78.6696 29.254 79.3725 29.6307 80.0553 30.2454L81.3002 28.8178C80.4772 28.005 79.4724 27.4696 77.7855 27.4696C75.0544 27.4696 73.1464 29.5118 73.1464 32.0099V32.0297C73.1464 34.5477 75.0945 36.5502 77.7051 36.5502C79.4127 36.5502 80.4369 35.9554 81.3605 34.9839V34.9839ZM89.6951 36.3916V34.6667H84.8752V32.8228H89.0726V31.0979H84.8752V29.3135H89.6347V27.5886H82.9274V36.3717H89.6951V36.3916Z" fill="#1E2026"/><path d="M102.098 30.5536C102.098 28.7646 100.802 27.6137 98.7507 27.6137H95.2783V36.3709H96.8257V33.5561H98.575C100.513 33.5561 102.098 32.5302 102.098 30.5536V30.5536ZM100.525 30.5911C100.525 31.5294 99.795 32.1674 98.6253 32.1674H96.8257V29.0148H98.6253C99.783 29.0148 100.525 29.5528 100.525 30.5911ZM107.353 27.5511H105.919L102.043 36.3709H103.628L104.534 34.2567H108.699L109.592 36.3709H111.228L107.353 27.5511ZM108.133 32.893H105.101L106.61 29.3901L108.133 32.893V32.893ZM115.502 32.8805L119 27.6137H117.226L114.735 31.4919L112.269 27.6137H110.444L113.942 32.9181V36.3709H115.502V32.8805Z" fill="white"/></svg>