<svg fill="none" xmlns="http://www.w3.org/2000/svg" viewBox="0 0 128 64"><rect width="128" height="64" rx="16" fill="white"/><path d="M69.3683 15.9457L68.3062 14.106C67.1434 12.0921 64.5683 11.4021 62.5545 12.5648L49.8462 19.9019C49.1212 20.3205 48.5677 20.9222 48.2105 21.6149L69.3683 15.9457Z" fill="#0094FF"/><path d="M77.0522 23.0606H51.758C52.3321 22.1865 53.2306 21.5236 54.33 21.2698L71.4073 17.3272C73.6731 16.8041 75.9339 18.2168 76.457 20.4826L77.0522 23.0606Z" fill="#0094FF"/><path fill-rule="evenodd" clip-rule="evenodd" d="M71.3684 37.2632C71.3684 34.9377 73.2535 33.0526 75.5789 33.0526H79.7895C82.1149 33.0526 84 34.9377 84 37.2632V39.3684C84 41.6938 82.1149 43.5789 79.7895 43.5789H75.5789C73.2535 43.5789 71.3684 41.6938 71.3684 39.3684V37.2632ZM73.4737 38.3158C73.4737 37.1531 74.4162 36.2105 75.5789 36.2105C76.7417 36.2105 77.6842 37.1531 77.6842 38.3158C77.6842 39.4785 76.7417 40.4211 75.5789 40.4211C74.4162 40.4211 73.4737 39.4785 73.4737 38.3158Z" fill="#0094FF"/><path d="M44 28.8421C44 26.5167 45.8851 24.6316 48.2105 24.6316H75.5789C77.9044 24.6316 79.7895 26.5167 79.7895 28.8421V30.9474H75.5789C72.0908 30.9474 69.2632 33.775 69.2632 37.2632V39.3684C69.2632 42.8565 72.0908 45.6842 75.5789 45.6842H79.7895V47.7895C79.7895 50.1149 77.9044 52 75.5789 52H48.2105C45.8851 52 44 50.1149 44 47.7895V28.8421Z" fill="#0094FF"/><path fill-rule="evenodd" clip-rule="evenodd" d="M57.6841 28.8422C52.4603 28.8422 48.2104 33.0921 48.2104 38.3158C48.2104 43.5396 52.4603 47.7895 57.6841 47.7895C62.9079 47.7895 67.1578 43.5396 67.1578 38.3158C67.1578 33.0921 62.9079 28.8422 57.6841 28.8422Z" fill="#33A9FF"/><path fill-rule="evenodd" clip-rule="evenodd" d="M58.5867 39.0707V40.1198C58.5867 40.6187 58.1835 41.0219 57.6846 41.0219C57.1858 41.0219 56.7825 40.6187 56.7825 40.1198V38.3157C56.7825 37.8168 57.1858 37.4136 57.6846 37.4136C58.4306 37.4136 59.0377 36.8065 59.0377 36.0605C59.0377 35.3145 58.4306 34.7074 57.6846 34.7074C56.9386 34.7074 56.3315 35.3145 56.3315 36.0605C56.3315 36.5593 55.9283 36.9626 55.4294 36.9626C54.9306 36.9626 54.5273 36.5593 54.5273 36.0605C54.5273 34.3195 55.9436 32.9032 57.6846 32.9032C59.4256 32.9032 60.8419 34.3195 60.8419 36.0605C60.8419 37.4858 59.8857 38.6792 58.5867 39.0707Z" fill="#0076CC"/><path fill-rule="evenodd" clip-rule="evenodd" d="M57.6848 43.7281C57.1859 43.7281 56.7827 43.3249 56.7827 42.826C56.7827 42.3272 57.1859 41.924 57.6848 41.924C58.1836 41.924 58.5869 42.3272 58.5869 42.826C58.5869 43.3249 58.1836 43.7281 57.6848 43.7281Z" fill="#0076CC"/></svg>