<svg viewBox="0 0 128 64" fill="none" xmlns="http://www.w3.org/2000/svg"><path d="M0 16C0 7.163 7.163 0 16 0h96c8.837 0 16 7.163 16 16v32c0 8.837-7.163 16-16 16H16C7.163 64 0 56.837 0 48V16z" fill="#07487A"/><mask id="a" maskUnits="userSpaceOnUse" x="40" y="8" width="48" height="48"><path d="M64 56c13.255 0 24-10.745 24-24S77.255 8 64 8 40 18.745 40 32s10.745 24 24 24z" fill="#fff"/></mask><g mask="url(#a)"><path d="M64 56c13.255 0 24-10.745 24-24S77.255 8 64 8 40 18.745 40 32s10.745 24 24 24z" fill="url(#paint0_radial)"/><path d="M39.19 29.034h4.034l1.899 2.482h-8.35v.62H47.21l-1.336 2.793h-2.4v.62h2.812l1.756-3.413h2.9l.146-.62h-5.123l-2.333-3.102h-4.306l-.136.62zM40.47 26.303c.61 0 1.104-.492 1.104-1.1 0-.607-.495-1.1-1.105-1.1s-1.105.493-1.105 1.1c0 .608.495 1.1 1.105 1.1zM41.353 38.393a.88.88 0 01-.546.817.89.89 0 01-1.209-.642.88.88 0 01.452-.951.886.886 0 011.303.777zm2.403-16.444a1.103 1.103 0 01-1.528 1.017 1.103 1.103 0 01-.682-1.017c0-.608.495-1.1 1.104-1.1.293 0 .575.116.782.322.207.207.323.486.323.778h.001z" fill="#FDB814"/><path d="M42.65 36.383c.61 0 1.105-.491 1.105-1.097s-.495-1.097-1.105-1.097-1.105.49-1.105 1.097c0 .606.495 1.097 1.105 1.097zM43.756 41.801a1.1 1.1 0 01-.681 1.02 1.108 1.108 0 01-1.508-.801 1.096 1.096 0 01.47-1.13 1.102 1.102 0 011.718.912zM44.834 26.303c.61 0 1.104-.492 1.104-1.1 0-.607-.494-1.1-1.104-1.1-.61 0-1.105.493-1.105 1.1 0 .608.494 1.1 1.105 1.1zM45.938 38.393a1.103 1.103 0 01-1.527 1.018 1.104 1.104 0 01-.682-1.018 1.103 1.103 0 011.105-1.1c.61 0 1.104.493 1.104 1.1zM34.804 28.62c0 .485-.395.88-.882.88a.881.881 0 01-.884-.88.884.884 0 011.767 0z" fill="#FDB814"/><path fill-rule="evenodd" clip-rule="evenodd" d="M60.116 29.647a1.676 1.676 0 00-.951-1.902 1.692 1.692 0 00-.748-.15h-2.619a2.546 2.546 0 00-2.414 2.052l-.82 4.562a1.669 1.669 0 00.34 1.445 1.68 1.68 0 001.36.606h2.619a2.572 2.572 0 002.415-2.051l.818-4.562zm-3.416 7.76h-2.622a2.741 2.741 0 01-1.943-.754l-.86 4.887a.74.74 0 01-.674.573.476.476 0 01-.472-.573l2.099-11.893a3.96 3.96 0 013.764-3.195h2.642a2.652 2.652 0 012.085.936 2.79 2.79 0 01.533 2.26l-.819 4.56c-.295 1.773-1.975 3.198-3.733 3.198zm4.686 0a.467.467 0 01-.471-.549.698.698 0 01.654-.551h5.178a2.464 2.464 0 002.356-1.975 1.626 1.626 0 00-.934-1.834 1.64 1.64 0 00-.725-.14h-2.858c-1.637 0-2.742-1.324-2.456-2.954a3.699 3.699 0 013.486-2.952h4.815a.437.437 0 01.45.528.673.673 0 01-.632.552H65.44a2.35 2.35 0 00-2.232 1.872 1.547 1.547 0 00.328 1.32c.308.366.768.57 1.246.554h2.867a2.561 2.561 0 012.026.895c.492.605.682 1.398.516 2.159-.307 1.69-1.924 3.078-3.623 3.078h-5.18v-.004h-.002zm14.062-9.875a2.66 2.66 0 00-2.518 2.115l-.328 1.796h6.953l.329-1.796a1.739 1.739 0 00-.37-1.493 1.757 1.757 0 00-1.412-.623h-2.654zm-1.74 9.874c-1.78 0-2.988-1.446-2.681-3.217l.818-4.542a3.983 3.983 0 013.785-3.195h2.662c1.78 0 2.987 1.426 2.682 3.195l-.423 2.336a.656.656 0 01-.633.55h-7.493l-.307 1.648a1.741 1.741 0 001.003 1.97c.245.108.512.159.779.148h5.179a.445.445 0 01.43.551.635.635 0 01-.616.529l-5.186.027zM53.972 24.224a.514.514 0 00-.494.418.337.337 0 00.347.41h.893l.148-.828h-.894zm-.182 1.044a.516.516 0 01-.516-.626.79.79 0 01.741-.628h.895l.046-.256a.337.337 0 00-.343-.413h-.876a.087.087 0 01-.084-.109.124.124 0 01.12-.102h.876a.517.517 0 01.515.623l-.257 1.403a.123.123 0 01-.121.107h-.999.003v.001zm3.012-.103a.133.133 0 01-.127.105h-.96a.516.516 0 01-.406-.182.532.532 0 01-.109-.441l.16-.884a.745.745 0 01.258-.44.738.738 0 01.468-.181h.966a.088.088 0 01.09.103.134.134 0 01-.126.107h-.959a.513.513 0 00-.488.41l-.16.885a.34.34 0 00.348.412h.955a.087.087 0 01.089.066.087.087 0 010 .04zm2.188-1.407l-.257 1.399a.131.131 0 01-.127.11.096.096 0 01-.095-.11l.258-1.4a.324.324 0 00-.33-.4h-.515a.496.496 0 00-.471.4l-.257 1.4a.138.138 0 01-.129.11.095.095 0 01-.095-.11l.502-2.82a.144.144 0 01.131-.11.093.093 0 01.093.109l-.168.952a.732.732 0 01.425-.146h.515a.517.517 0 01.52.615z" fill="#fff"/></g><defs><radialGradient id="paint0_radial" cx="0" cy="0" r="1" gradientUnits="userSpaceOnUse" gradientTransform="translate(63.378 21.476) scale(34.5518)"><stop stop-color="#2659A5"/><stop offset=".551" stop-color="#1A4579"/><stop offset="1" stop-color="#082E4D"/></radialGradient></defs></svg>