<svg fill="none" xmlns="http://www.w3.org/2000/svg" viewBox="0 0 128 64"><rect width="128" height="64" rx="16" fill="#102F29"/><path d="M75.3918 33.0148C75.3422 37.99 73.0746 40.4776 68.5888 40.4776C64.0535 40.4776 61.7839 37.9343 61.7839 32.846C61.7839 27.7577 64.0516 25.2145 68.5888 25.2145C73.1242 25.2145 75.3918 27.7577 75.3918 32.846V33.0148ZM68.5888 28.4271C66.7207 28.4271 65.7878 29.9001 65.7878 32.846V32.9995C65.8202 35.8419 66.7534 37.265 68.5888 37.265C70.457 37.265 71.3901 35.792 71.3901 32.846C71.3901 29.9001 70.457 28.4271 68.5888 28.4271ZM80.996 31.2388H83.7973C85.6654 31.2388 86.5983 30.2338 86.5983 28.2257C86.5983 26.2176 85.6654 25.2126 83.7973 25.2126H80.996V31.2388ZM83.7973 22C88.3326 22 90.6003 24.0752 90.6003 28.2257C90.6003 32.3761 88.3326 34.4514 83.7973 34.4514H80.996V40.0748H76.9943V22H83.7973ZM60.9846 25.6154V29.2307C58.3174 28.8298 56.9828 29.7658 56.9828 32.0424V40.0748H52.9808V25.6154H56.9828V27.4853C58.3479 25.0783 60.9846 25.6154 60.9846 25.6154ZM48.5774 22.8036V25.6154H51.3787V28.8279H48.5774V34.8522C48.5774 36.6915 49.4762 37.4318 51.2716 37.077L51.3787 37.054V40.0729L51.2544 40.1055C50.3327 40.3357 44.5735 41.5018 44.5735 34.8503V28.826H42.5737V25.6134H44.5754L45.7761 22.8017H48.5774V22.8036ZM99.8048 29.9423C99.7628 28.7953 98.9254 28.5421 97.8126 28.5076C96.474 28.5479 95.6711 28.9219 95.4052 29.6315H91.8029C91.8029 27.2207 93.8049 25.2126 97.8069 25.2126C101.067 25.2126 103.826 26.7316 103.811 29.6315L103.809 30.4121L103.811 40.0748H99.8086V38.2988C98.9406 40.0134 96.8487 40.4776 95.4052 40.4776C93.4569 40.4776 91.0017 39.2731 91.0017 36.0586C91.0017 30.1896 99.8067 32.0923 99.8067 30.0343L99.8048 29.9423ZM99.8067 33.6496C99.453 34.53 95.0037 34.0083 95.0037 36.0605C95.0037 38.2182 99.8067 37.6678 99.8067 35.2569V33.6496ZM28.9656 30.0343C28.9541 27.844 30.6023 25.2145 35.1701 25.2145C39.172 25.2145 41.0326 27.2226 41.3749 29.6335H37.6614C37.2734 28.8835 36.4436 28.5095 35.1701 28.5095C32.7093 28.5095 32.6921 30.6327 35.0707 31.024L35.1701 31.0393C39.0611 31.4402 41.3593 33.0225 41.3749 35.6577C41.3863 37.8481 39.7381 40.4776 35.1701 40.4776C31.1682 40.4776 29.3078 38.4695 28.9656 36.0586H32.6788C33.0669 36.8085 33.8967 37.1825 35.1701 37.1825C37.6633 37.1825 37.6481 35.0018 35.1701 34.6527C31.2791 34.2519 28.9789 32.6696 28.9656 30.0343ZM105.792 44.8946C109.258 45.4815 111.824 43.6173 113.489 39.3019L119 25.6154H114.746L111.558 33.5307L108.371 25.6154H104.053L109.405 38.9087C108.52 40.9513 107.346 41.8796 105.883 41.6955L105.79 41.682V44.8946H105.792ZM19.4398 27.3492L16.499 34.6546C18.0287 34.0083 19.7094 33.6496 21.4723 33.6496C21.6424 33.6496 21.8126 33.6535 21.9809 33.6592L19.4398 27.3492ZM10 40.0748L17.2753 22H21.6023L28.8795 40.0748H24.5621L23.3422 37.0444C22.7361 36.9236 22.1109 36.8622 21.4703 36.8622C18.6291 36.8622 16.0765 38.1012 14.3174 40.069L14.3136 40.0767H10V40.0748Z" fill="white"/></svg>