<svg width="220" height="28" viewBox="0 0 220 28" fill="none" xmlns="http://www.w3.org/2000/svg">
<path d="M194.24 22.16H182.76C181.08 22.16 179.76 20.84 179.76 19.2C179.76 18.68 179.88 18.12 180.16 17.64L185.92 7.60002C186.52 6.60002 187.48 6.08002 188.52 6.08002C189.52 6.08002 190.52 6.60002 191.12 7.60002L196.84 17.64C197.16 18.12 197.28 18.68 197.28 19.2C197.28 20.84 195.96 22.16 194.24 22.16ZM199.76 6.32002H211.28C212.52 6.32002 213.56 7.04002 214 8.08002C214.4 8.88001 214.4 9.92002 213.88 10.8L208.12 20.84C207.56 21.84 206.56 22.4 205.52 22.4C204.52 22.4 203.52 21.84 202.92 20.84L197.2 10.8C196.68 9.92002 196.68 8.88002 197.08 8.08002C197.48 7.04002 198.52 6.32002 199.76 6.32002ZM188.36 2.12002C185.88 2.12002 183.48 3.48002 182.24 5.64002L176.48 15.64C175.72 17.04 175.32 18.48 175.32 19.8C175.32 23.48 178.24 26.32 182.6 26.32H205.8C208.28 26.32 210.68 24.92 211.92 22.76L217.68 12.76C218.44 11.36 218.84 9.92001 218.84 8.60002C218.84 4.96002 215.92 2.12002 211.52 2.12002H188.36Z" fill="white"/>
<path d="M29.32 19.08C28.04 19.08 27.8 18.68 27.8 17.24V1.24C27.8 0.960002 27.6 0.760001 27.32 0.760001H24.2C23.92 0.760001 23.72 0.960002 23.72 1.24V17.24C23.72 21.08 24.48 22.08 27.28 22.08C27.84 22.08 28.72 22.04 29.36 21.96C29.6 21.92 29.8 21.72 29.8 21.4V19.56C29.8 19.28 29.6 19.08 29.32 19.08ZM10.36 18.56C4.92 18.56 4.32 17.8 4.32 11.12C4.32 4.44 4.92 3.68 10.36 3.68C15.8 3.68 16.44 4.44 16.44 11.12C16.44 17.8 15.8 18.56 10.36 18.56ZM10.36 0C3.52 0 0 3.8 0 11.12C0 18.48 3.52 22.24 10.36 22.24C17.2 22.24 20.72 18.48 20.72 11.12C20.72 3.8 17.2 0 10.36 0ZM115.32 5.92C112.96 5.92 111.84 6.6 111.2 8.52C111.16 8.64 111.12 8.68 111 8.68C110.88 8.68 110.8 8.64 110.8 8.52L110.64 6.76C110.6 6.48 110.4 6.32 110.08 6.32H107.56C107.28 6.32 107.08 6.52 107.08 6.8V21.36C107.08 21.64 107.28 21.84 107.56 21.84H110.68C110.96 21.84 111.16 21.64 111.16 21.36V15.12C111.16 10 111.56 9.44 115.32 9.44H115.76C116.04 9.44 116.24 9.24 116.24 8.96V6.4C116.24 6.12 116.04 5.92 115.76 5.92L115.32 5.92ZM127.2 16.44C127.2 18.2 126.08 19.04 123.68 19.04C121.76 19.04 121.24 18.6 121.24 17.16C121.24 15.44 121.84 15.16 126.24 15.16H127.2V16.44ZM124.64 5.92C120.28 5.92 118.2 7.84 117.8 10.6C117.76 10.88 117.96 11.08 118.24 11.08H120.92C121.2 11.08 121.36 10.88 121.48 10.64C122 9.52 122.64 9.16 124.48 9.16C126.92 9.16 127.2 9.4 127.2 11.76V12.36H126.24C119.96 12.36 117.28 13.92 117.28 17.6C117.28 20.64 119.52 22.24 122.36 22.24C124.92 22.24 126.28 21.56 126.96 19.96C126.96 19.84 127.08 19.8 127.16 19.8C127.24 19.8 127.32 19.88 127.32 19.96L127.52 21.4C127.52 21.64 127.76 21.84 128.04 21.84H130.72C131 21.84 131.2 21.64 131.2 21.36V11.76C131.2 7.88 129 5.92 124.64 5.92ZM145.52 14.2C145.52 18.4 145.12 18.96 141.92 18.96C138.8 18.96 138.32 18.32 138.32 14.16C138.32 9.84 138.8 9.2 142 9.2C145.04 9.2 145.52 9.8 145.52 13.68V14.2ZM146 0.759999C145.72 0.759999 145.52 0.96 145.52 1.24V7.56C145.52 7.68 145.48 7.72 145.36 7.72C145.28 7.72 145.16 7.68 145.12 7.6C144.4 6.48 142.96 5.92 140.76 5.92C136.32 5.92 133.92 8.84 133.92 14.12C133.92 19.4 136.2 22.24 140.52 22.24C143.16 22.24 144.64 21.52 145.28 19.96C145.32 19.84 145.4 19.8 145.48 19.8C145.56 19.8 145.64 19.88 145.64 19.96L145.84 21.4C145.84 21.64 146.08 21.84 146.36 21.84H149.12C149.4 21.84 149.6 21.64 149.6 21.36V1.24C149.6 0.960002 149.4 0.760001 149.12 0.760001L146 0.759999ZM67.76 5.92C65.08 5.92 63.36 6.72 62.84 8.2C62.8 8.32 62.72 8.36 62.64 8.36C62.56 8.36 62.44 8.32 62.4 8.2C61.8 6.84 60.4 5.92 58.16 5.92C55.28 5.92 53.64 6.64 53.12 8.2C53.08 8.28 53 8.36 52.92 8.36C52.8 8.36 52.72 8.32 52.72 8.2L52.56 6.76C52.52 6.52 52.28 6.32 52 6.32H49.48C49.2 6.32 49 6.52 49 6.8V21.36C49 21.64 49.2 21.84 49.48 21.84H52.6C52.88 21.84 53.08 21.64 53.08 21.36V13.48C53.08 9.72 53.44 9.28 56.28 9.28C58.88 9.28 59.12 9.56 59.12 13.16V21.36C59.12 21.64 59.32 21.84 59.6 21.84H62.68C62.96 21.84 63.16 21.64 63.16 21.36V13.52C63.16 9.72 63.48 9.28 66.36 9.28C69 9.28 69.24 9.56 69.24 13.16V21.36C69.24 21.64 69.44 21.84 69.72 21.84H72.8C73.08 21.84 73.28 21.64 73.28 21.36V12.56C73.28 11.52 73.24 10.76 73.12 9.96C72.8 7.64 71.08 5.92 67.76 5.92ZM101.08 6.36C100.8 6.36 100.6 6.16 100.6 5.88V2.88C100.6 2.6 100.4 2.44 100.16 2.48L96.96 3C96.72 3.04 96.52 3.28 96.52 3.56V5.36C96.52 6.12 96.28 6.36 95.52 6.36H94.76C94.48 6.36 94.28 6.56 94.28 6.84V9.08C94.28 9.36 94.48 9.56 94.76 9.56H96.04C96.32 9.56 96.52 9.76 96.52 10.04V16.72C96.52 21.04 97.4 22.2 100.76 22.2C101.96 22.2 102.72 22.16 103.56 22.04C103.8 22.04 104 21.8 104 21.52V19.4C104 19.12 103.8 18.96 103.52 18.96C100.88 18.96 100.6 18.72 100.6 16.6V10.04C100.6 9.76 100.8 9.56 101.08 9.56H103.68C103.96 9.56 104.16 9.36 104.16 9.08V6.84C104.16 6.56 103.96 6.36 103.68 6.36H101.08ZM162.64 12.44H156.4C156.52 9.6 157.2 9.16 159.84 9.16C162.24 9.16 162.8 9.48 163.08 12C163.12 12.24 162.92 12.44 162.64 12.44ZM160 5.92C154.72 5.92 152.28 9.12 152.28 14.16C152.28 19.52 154.88 22.24 159.84 22.24C163.6 22.24 166 20.68 166.68 18C166.72 17.76 166.56 17.56 166.28 17.56H163.6C163.28 17.56 163.08 17.72 162.84 18C162.36 18.64 161.24 19 159.96 19C157.12 19 156.48 18.6 156.36 15.32H166.68C166.96 15.32 167.16 15.12 167.2 14.84C167.24 14.48 167.24 14.12 167.24 13.8C167.24 9.24 165.08 5.92 160 5.92ZM42.88 6.32C42.6 6.32 42.36 6.48 42.24 6.76L39.24 16.6C39.12 17.04 38.88 17.96 38.8 18.56C38.8 18.64 38.72 18.72 38.6 18.72C38.48 18.72 38.4 18.64 38.4 18.56C38.32 17.96 38.16 17.04 38.04 16.6L35.44 6.76C35.36 6.48 35.12 6.32 34.84 6.32H31.08C30.8 6.32 30.68 6.48 30.76 6.76L35.56 20.84C35.88 21.72 36.04 22.36 36.04 22.88C36.04 24.24 35.4 24.72 33.64 24.72H33.08C32.8 24.72 32.6 24.92 32.6 25.2V27.36C32.6 27.68 32.8 27.92 33.04 27.96C33.2 28 33.36 28 33.56 28C37.92 28 39.24 26.88 41.08 21.84L46.52 6.76C46.6 6.48 46.48 6.32 46.2 6.32H42.88ZM84.36 18.96C81.32 18.96 80.84 18.36 80.84 14.48V13.96C80.84 9.76 81.24 9.2 84.44 9.2C87.56 9.2 88.04 9.84 88.04 14C88.04 18.32 87.6 18.96 84.36 18.96ZM85.84 5.92C83.2 5.92 81.72 6.64 81.08 8.2C81.04 8.32 80.96 8.36 80.88 8.36C80.8 8.36 80.72 8.28 80.72 8.2L80.52 6.76C80.48 6.52 80.28 6.32 80 6.32H77.24C76.96 6.32 76.76 6.52 76.76 6.8V26.92C76.76 27.2 76.96 27.4 77.24 27.4H80.36C80.64 27.4 80.84 27.2 80.84 26.92V20.6C80.84 20.52 80.92 20.44 81 20.44C81.12 20.44 81.2 20.48 81.24 20.56C81.96 21.68 83.4 22.24 85.6 22.24C90.04 22.24 92.44 19.32 92.44 14.04C92.44 8.76 90.16 5.92 85.84 5.92Z" fill="white"/>
</svg>
